<mxfile host="Electron" agent="Mozilla/5.0 (Macintosh; Intel Mac OS X 10_15_7) AppleWebKit/537.36 (KHTML, like Gecko) draw.io/24.7.17 Chrome/128.0.6613.36 Electron/32.0.1 Safari/537.36" version="24.7.17">
  <diagram name="Page-1" id="TqILZYFhsVpSWD5aWVXQ">
    <mxGraphModel dx="5778" dy="2816" grid="1" gridSize="10" guides="1" tooltips="1" connect="1" arrows="1" fold="1" page="1" pageScale="1" pageWidth="1169" pageHeight="827" math="0" shadow="0">
      <root>
        <mxCell id="0" />
        <mxCell id="1" parent="0" />
        <mxCell id="e0_OfnmEluSwLV_fi7oM-22" value="" style="edgeStyle=orthogonalEdgeStyle;rounded=0;orthogonalLoop=1;jettySize=auto;html=1;" parent="1" source="e0_OfnmEluSwLV_fi7oM-15" target="e0_OfnmEluSwLV_fi7oM-21" edge="1">
          <mxGeometry relative="1" as="geometry" />
        </mxCell>
        <mxCell id="e0_OfnmEluSwLV_fi7oM-23" value="yes" style="edgeLabel;html=1;align=center;verticalAlign=middle;resizable=0;points=[];" parent="e0_OfnmEluSwLV_fi7oM-22" vertex="1" connectable="0">
          <mxGeometry x="0.3545" y="-1" relative="1" as="geometry">
            <mxPoint as="offset" />
          </mxGeometry>
        </mxCell>
        <mxCell id="e0_OfnmEluSwLV_fi7oM-25" value="" style="edgeStyle=orthogonalEdgeStyle;rounded=0;orthogonalLoop=1;jettySize=auto;html=1;" parent="1" source="e0_OfnmEluSwLV_fi7oM-15" target="e0_OfnmEluSwLV_fi7oM-24" edge="1">
          <mxGeometry relative="1" as="geometry" />
        </mxCell>
        <mxCell id="e0_OfnmEluSwLV_fi7oM-15" value="&lt;font style=&quot;font-size: 10px;&quot;&gt;impact != configuration values&lt;/font&gt;" style="strokeWidth=2;html=1;shape=mxgraph.flowchart.decision;whiteSpace=wrap;" parent="1" vertex="1">
          <mxGeometry x="352.5" y="350" width="165" height="90" as="geometry" />
        </mxCell>
        <mxCell id="e0_OfnmEluSwLV_fi7oM-20" value="" style="edgeStyle=orthogonalEdgeStyle;rounded=0;orthogonalLoop=1;jettySize=auto;html=1;" parent="1" source="e0_OfnmEluSwLV_fi7oM-16" target="e0_OfnmEluSwLV_fi7oM-15" edge="1">
          <mxGeometry relative="1" as="geometry" />
        </mxCell>
        <mxCell id="e0_OfnmEluSwLV_fi7oM-16" value="&lt;p style=&quot;text-align: center; padding-left: 0px;&quot;&gt;&lt;font style=&quot;font-size: 11px;&quot;&gt;Retrive variables&lt;/font&gt;&lt;/p&gt;&lt;div style=&quot;font-size: 11px;&quot;&gt;&lt;font style=&quot;font-size: 11px;&quot;&gt;name&lt;span style=&quot;white-space: pre;&quot;&gt;&#x9;&lt;/span&gt;(default: None)&lt;/font&gt;&lt;/div&gt;&lt;div style=&quot;font-size: 11px;&quot;&gt;&lt;font style=&quot;font-size: 11px;&quot;&gt;text&lt;span style=&quot;white-space: pre;&quot;&gt;&#x9;&lt;/span&gt;&lt;span style=&quot;white-space: pre;&quot;&gt;&#x9;&lt;/span&gt;(default: Incident)&lt;/font&gt;&lt;/div&gt;&lt;div style=&quot;font-size: 11px;&quot;&gt;&lt;font style=&quot;font-size: 11px;&quot;&gt;impact&lt;span style=&quot;white-space: pre;&quot;&gt;&#x9;&lt;/span&gt;(default: 1)&lt;/font&gt;&lt;/div&gt;&lt;div style=&quot;font-size: 11px;&quot;&gt;&lt;font style=&quot;font-size: 11px;&quot;&gt;attributes&lt;span style=&quot;white-space: pre;&quot;&gt;&#x9;&lt;/span&gt;(default: None)&lt;/font&gt;&lt;/div&gt;" style="rounded=0;whiteSpace=wrap;html=1;align=left;" parent="1" vertex="1">
          <mxGeometry x="350" y="220" width="170" height="100" as="geometry" />
        </mxCell>
        <mxCell id="e0_OfnmEluSwLV_fi7oM-18" value="" style="edgeStyle=orthogonalEdgeStyle;rounded=0;orthogonalLoop=1;jettySize=auto;html=1;" parent="1" source="e0_OfnmEluSwLV_fi7oM-17" target="e0_OfnmEluSwLV_fi7oM-16" edge="1">
          <mxGeometry relative="1" as="geometry" />
        </mxCell>
        <mxCell id="e0_OfnmEluSwLV_fi7oM-17" value="" style="shape=umlActor;verticalLabelPosition=bottom;verticalAlign=top;html=1;outlineConnect=0;" parent="1" vertex="1">
          <mxGeometry x="420" y="70" width="30" height="60" as="geometry" />
        </mxCell>
        <mxCell id="e0_OfnmEluSwLV_fi7oM-19" value="send a request" style="text;html=1;align=center;verticalAlign=middle;whiteSpace=wrap;rounded=0;" parent="1" vertex="1">
          <mxGeometry x="440" y="160" width="60" height="30" as="geometry" />
        </mxCell>
        <mxCell id="e0_OfnmEluSwLV_fi7oM-21" value="return 400&lt;div&gt;&lt;br&gt;&lt;div&gt;&lt;font style=&quot;font-size: 10px;&quot;&gt;&quot;Incident impact is not allowed by configuration&quot;&lt;/font&gt;&lt;/div&gt;&lt;/div&gt;" style="whiteSpace=wrap;html=1;strokeWidth=2;" parent="1" vertex="1">
          <mxGeometry x="60" y="352.5" width="190" height="85" as="geometry" />
        </mxCell>
        <mxCell id="e0_OfnmEluSwLV_fi7oM-28" value="" style="edgeStyle=orthogonalEdgeStyle;rounded=0;orthogonalLoop=1;jettySize=auto;html=1;" parent="1" source="e0_OfnmEluSwLV_fi7oM-24" target="e0_OfnmEluSwLV_fi7oM-27" edge="1">
          <mxGeometry relative="1" as="geometry" />
        </mxCell>
        <mxCell id="e0_OfnmEluSwLV_fi7oM-24" value="find component by name and attributes" style="whiteSpace=wrap;html=1;strokeWidth=2;" parent="1" vertex="1">
          <mxGeometry x="375" y="480" width="120" height="60" as="geometry" />
        </mxCell>
        <mxCell id="e0_OfnmEluSwLV_fi7oM-30" value="" style="edgeStyle=orthogonalEdgeStyle;rounded=0;orthogonalLoop=1;jettySize=auto;html=1;" parent="1" source="e0_OfnmEluSwLV_fi7oM-27" target="e0_OfnmEluSwLV_fi7oM-29" edge="1">
          <mxGeometry relative="1" as="geometry" />
        </mxCell>
        <mxCell id="e0_OfnmEluSwLV_fi7oM-32" value="no" style="edgeLabel;html=1;align=center;verticalAlign=middle;resizable=0;points=[];" parent="e0_OfnmEluSwLV_fi7oM-30" vertex="1" connectable="0">
          <mxGeometry x="-0.2" relative="1" as="geometry">
            <mxPoint as="offset" />
          </mxGeometry>
        </mxCell>
        <mxCell id="e0_OfnmEluSwLV_fi7oM-34" value="" style="edgeStyle=orthogonalEdgeStyle;rounded=0;orthogonalLoop=1;jettySize=auto;html=1;" parent="1" source="e0_OfnmEluSwLV_fi7oM-27" target="e0_OfnmEluSwLV_fi7oM-33" edge="1">
          <mxGeometry relative="1" as="geometry" />
        </mxCell>
        <mxCell id="e0_OfnmEluSwLV_fi7oM-27" value="component found" style="rhombus;whiteSpace=wrap;html=1;strokeWidth=2;" parent="1" vertex="1">
          <mxGeometry x="367.5" y="580" width="135" height="110" as="geometry" />
        </mxCell>
        <mxCell id="e0_OfnmEluSwLV_fi7oM-29" value="return 400&lt;div&gt;&lt;div&gt;&lt;font style=&quot;font-size: 10px;&quot;&gt;&quot;Component not found&quot;&lt;/font&gt;&lt;/div&gt;&lt;/div&gt;" style="whiteSpace=wrap;html=1;strokeWidth=2;" parent="1" vertex="1">
          <mxGeometry x="120" y="605" width="120" height="60" as="geometry" />
        </mxCell>
        <mxCell id="e0_OfnmEluSwLV_fi7oM-36" value="" style="edgeStyle=orthogonalEdgeStyle;rounded=0;orthogonalLoop=1;jettySize=auto;html=1;" parent="1" source="e0_OfnmEluSwLV_fi7oM-33" target="e0_OfnmEluSwLV_fi7oM-35" edge="1">
          <mxGeometry relative="1" as="geometry" />
        </mxCell>
        <mxCell id="e0_OfnmEluSwLV_fi7oM-33" value="get Incidents in the maintenance status" style="whiteSpace=wrap;html=1;strokeWidth=2;" parent="1" vertex="1">
          <mxGeometry x="375" y="720" width="120" height="60" as="geometry" />
        </mxCell>
        <mxCell id="e0_OfnmEluSwLV_fi7oM-38" value="" style="edgeStyle=orthogonalEdgeStyle;rounded=0;orthogonalLoop=1;jettySize=auto;html=1;" parent="1" source="e0_OfnmEluSwLV_fi7oM-35" target="e0_OfnmEluSwLV_fi7oM-37" edge="1">
          <mxGeometry relative="1" as="geometry" />
        </mxCell>
        <mxCell id="e0_OfnmEluSwLV_fi7oM-39" value="yes" style="edgeLabel;html=1;align=center;verticalAlign=middle;resizable=0;points=[];" parent="e0_OfnmEluSwLV_fi7oM-38" vertex="1" connectable="0">
          <mxGeometry x="0.0987" y="-2" relative="1" as="geometry">
            <mxPoint as="offset" />
          </mxGeometry>
        </mxCell>
        <mxCell id="e0_OfnmEluSwLV_fi7oM-41" value="" style="edgeStyle=orthogonalEdgeStyle;rounded=0;orthogonalLoop=1;jettySize=auto;html=1;" parent="1" source="e0_OfnmEluSwLV_fi7oM-35" target="e0_OfnmEluSwLV_fi7oM-40" edge="1">
          <mxGeometry relative="1" as="geometry" />
        </mxCell>
        <mxCell id="e0_OfnmEluSwLV_fi7oM-35" value="&lt;font style=&quot;font-size: 10px;&quot;&gt;component in&lt;/font&gt;&lt;div&gt;&lt;font style=&quot;font-size: 10px;&quot;&gt;&amp;nbsp;any maintenance incident&lt;/font&gt;&lt;/div&gt;" style="rhombus;whiteSpace=wrap;html=1;strokeWidth=2;" parent="1" vertex="1">
          <mxGeometry x="356.25" y="840" width="157.5" height="80" as="geometry" />
        </mxCell>
        <mxCell id="e0_OfnmEluSwLV_fi7oM-37" value="return 201&lt;div&gt;&lt;br&gt;&lt;/div&gt;&lt;div&gt;In the response will be returned current Incident&lt;/div&gt;&lt;div&gt;&lt;br&gt;&lt;/div&gt;&lt;div&gt;{&#39;end_date&#39;: None, &#39;id&#39;: 2, &#39;impact&#39;: 0, &#39;start_date&#39;: &#39;2024-10-02 08:25&#39;, &#39;text&#39;: &#39;any title&#39;, &#39;updates&#39;: []}&lt;br&gt;&lt;/div&gt;" style="whiteSpace=wrap;html=1;strokeWidth=2;" parent="1" vertex="1">
          <mxGeometry x="-117.5" y="815" width="357.5" height="130" as="geometry" />
        </mxCell>
        <mxCell id="e0_OfnmEluSwLV_fi7oM-43" value="" style="edgeStyle=orthogonalEdgeStyle;rounded=0;orthogonalLoop=1;jettySize=auto;html=1;" parent="1" source="e0_OfnmEluSwLV_fi7oM-40" target="e0_OfnmEluSwLV_fi7oM-42" edge="1">
          <mxGeometry relative="1" as="geometry" />
        </mxCell>
        <mxCell id="e0_OfnmEluSwLV_fi7oM-40" value="get all active Incidents opened by user" style="whiteSpace=wrap;html=1;strokeWidth=2;" parent="1" vertex="1">
          <mxGeometry x="375" y="1010" width="120" height="60" as="geometry" />
        </mxCell>
        <mxCell id="e0_OfnmEluSwLV_fi7oM-45" value="" style="edgeStyle=orthogonalEdgeStyle;rounded=0;orthogonalLoop=1;jettySize=auto;html=1;" parent="1" source="e0_OfnmEluSwLV_fi7oM-42" target="e0_OfnmEluSwLV_fi7oM-44" edge="1">
          <mxGeometry relative="1" as="geometry" />
        </mxCell>
        <mxCell id="e0_OfnmEluSwLV_fi7oM-52" value="yes" style="edgeLabel;html=1;align=center;verticalAlign=middle;resizable=0;points=[];" parent="e0_OfnmEluSwLV_fi7oM-45" vertex="1" connectable="0">
          <mxGeometry x="-0.0036" y="-2" relative="1" as="geometry">
            <mxPoint as="offset" />
          </mxGeometry>
        </mxCell>
        <mxCell id="e0_OfnmEluSwLV_fi7oM-47" value="" style="edgeStyle=orthogonalEdgeStyle;rounded=0;orthogonalLoop=1;jettySize=auto;html=1;" parent="1" source="e0_OfnmEluSwLV_fi7oM-42" target="e0_OfnmEluSwLV_fi7oM-46" edge="1">
          <mxGeometry relative="1" as="geometry" />
        </mxCell>
        <mxCell id="e0_OfnmEluSwLV_fi7oM-42" value="component presents in the incident&lt;div&gt;and incoming impact less or equal incident&#39;s impact&lt;/div&gt;" style="rhombus;whiteSpace=wrap;html=1;strokeWidth=2;" parent="1" vertex="1">
          <mxGeometry x="286.25" y="1140" width="297.5" height="170" as="geometry" />
        </mxCell>
        <mxCell id="e0_OfnmEluSwLV_fi7oM-44" value="return 409&lt;div&gt;&lt;br&gt;&lt;/div&gt;&lt;div&gt;&lt;div style=&quot;text-align: justify;&quot;&gt;{&lt;/div&gt;&lt;div style=&quot;text-align: justify;&quot;&gt;&amp;nbsp; &amp;nbsp;&quot;message&quot;:&amp;nbsp;&lt;span style=&quot;background-color: initial;&quot;&gt;&quot;Incident with this the component&amp;nbsp;&lt;/span&gt;&lt;span style=&quot;background-color: initial;&quot;&gt;already exists&quot;&lt;/span&gt;&lt;span style=&quot;background-color: initial;&quot;&gt;,&lt;/span&gt;&lt;/div&gt;&lt;div style=&quot;text-align: justify;&quot;&gt;&amp;nbsp; &amp;nbsp;&quot;targetComponent&quot;: COMPONENT details,&lt;/div&gt;&lt;div style=&quot;text-align: justify;&quot;&gt;&amp;nbsp; &amp;nbsp;&quot;existingIncidentId&quot;: existing_incident.id,&lt;/div&gt;&lt;div style=&quot;text-align: justify;&quot;&gt;&amp;nbsp; &amp;nbsp;&quot;existingIncidentTitle&quot;: existing_incident.text,&lt;/div&gt;&lt;div style=&quot;text-align: justify;&quot;&gt;&amp;nbsp; &amp;nbsp;&quot;details&quot;: &quot;Check your request parameters&quot;&lt;/div&gt;&lt;div style=&quot;text-align: justify;&quot;&gt;}&lt;/div&gt;&lt;/div&gt;" style="whiteSpace=wrap;html=1;strokeWidth=2;" parent="1" vertex="1">
          <mxGeometry x="-290" y="1106.25" width="530" height="237.5" as="geometry" />
        </mxCell>
        <mxCell id="e0_OfnmEluSwLV_fi7oM-49" value="" style="edgeStyle=orthogonalEdgeStyle;rounded=0;orthogonalLoop=1;jettySize=auto;html=1;" parent="1" source="e0_OfnmEluSwLV_fi7oM-46" target="e0_OfnmEluSwLV_fi7oM-48" edge="1">
          <mxGeometry relative="1" as="geometry" />
        </mxCell>
        <mxCell id="e0_OfnmEluSwLV_fi7oM-46" value="get all active Incidents" style="whiteSpace=wrap;html=1;strokeWidth=2;" parent="1" vertex="1">
          <mxGeometry x="375" y="1380" width="120" height="60" as="geometry" />
        </mxCell>
        <mxCell id="e0_OfnmEluSwLV_fi7oM-51" value="no" style="edgeStyle=orthogonalEdgeStyle;rounded=0;orthogonalLoop=1;jettySize=auto;html=1;" parent="1" source="e0_OfnmEluSwLV_fi7oM-48" target="e0_OfnmEluSwLV_fi7oM-50" edge="1">
          <mxGeometry relative="1" as="geometry" />
        </mxCell>
        <mxCell id="e0_OfnmEluSwLV_fi7oM-56" value="" style="edgeStyle=orthogonalEdgeStyle;rounded=0;orthogonalLoop=1;jettySize=auto;html=1;entryX=0.5;entryY=0;entryDx=0;entryDy=0;" parent="1" source="e0_OfnmEluSwLV_fi7oM-48" target="e0_OfnmEluSwLV_fi7oM-58" edge="1">
          <mxGeometry relative="1" as="geometry">
            <mxPoint x="435" y="1715" as="targetPoint" />
          </mxGeometry>
        </mxCell>
        <mxCell id="e0_OfnmEluSwLV_fi7oM-57" value="yes" style="edgeLabel;html=1;align=center;verticalAlign=middle;resizable=0;points=[];" parent="e0_OfnmEluSwLV_fi7oM-56" vertex="1" connectable="0">
          <mxGeometry x="-0.1619" y="-1" relative="1" as="geometry">
            <mxPoint as="offset" />
          </mxGeometry>
        </mxCell>
        <mxCell id="e0_OfnmEluSwLV_fi7oM-48" value="Incidents exist" style="rhombus;whiteSpace=wrap;html=1;strokeWidth=2;" parent="1" vertex="1">
          <mxGeometry x="362.5" y="1500" width="145" height="110" as="geometry" />
        </mxCell>
        <mxCell id="e0_OfnmEluSwLV_fi7oM-54" value="" style="edgeStyle=orthogonalEdgeStyle;rounded=0;orthogonalLoop=1;jettySize=auto;html=1;" parent="1" source="e0_OfnmEluSwLV_fi7oM-50" target="e0_OfnmEluSwLV_fi7oM-53" edge="1">
          <mxGeometry relative="1" as="geometry" />
        </mxCell>
        <mxCell id="e0_OfnmEluSwLV_fi7oM-50" value="create the new one" style="whiteSpace=wrap;html=1;strokeWidth=2;" parent="1" vertex="1">
          <mxGeometry x="150" y="1525" width="120" height="60" as="geometry" />
        </mxCell>
        <mxCell id="e0_OfnmEluSwLV_fi7oM-53" value="return 201&lt;div&gt;&lt;br&gt;&lt;/div&gt;&lt;div&gt;{&#39;end_date&#39;: None, &#39;id&#39;: 2, &#39;impact&#39;: 0, &#39;start_date&#39;: &#39;2024-10-02 08:25&#39;, &#39;text&#39;: &#39;any title&#39;, &#39;updates&#39;: []}&lt;br&gt;&lt;/div&gt;" style="whiteSpace=wrap;html=1;strokeWidth=2;" parent="1" vertex="1">
          <mxGeometry x="-310" y="1492.5" width="380" height="125" as="geometry" />
        </mxCell>
        <mxCell id="e0_OfnmEluSwLV_fi7oM-60" value="" style="edgeStyle=orthogonalEdgeStyle;rounded=0;orthogonalLoop=1;jettySize=auto;html=1;" parent="1" source="e0_OfnmEluSwLV_fi7oM-58" target="e0_OfnmEluSwLV_fi7oM-59" edge="1">
          <mxGeometry relative="1" as="geometry" />
        </mxCell>
        <mxCell id="e0_OfnmEluSwLV_fi7oM-61" value="no" style="edgeLabel;html=1;align=center;verticalAlign=middle;resizable=0;points=[];" parent="e0_OfnmEluSwLV_fi7oM-60" vertex="1" connectable="0">
          <mxGeometry x="-0.1502" relative="1" as="geometry">
            <mxPoint as="offset" />
          </mxGeometry>
        </mxCell>
        <mxCell id="e0_OfnmEluSwLV_fi7oM-71" style="edgeStyle=orthogonalEdgeStyle;rounded=0;orthogonalLoop=1;jettySize=auto;html=1;exitX=0.5;exitY=1;exitDx=0;exitDy=0;entryX=0.5;entryY=0;entryDx=0;entryDy=0;" parent="1" source="e0_OfnmEluSwLV_fi7oM-58" target="e0_OfnmEluSwLV_fi7oM-70" edge="1">
          <mxGeometry relative="1" as="geometry" />
        </mxCell>
        <mxCell id="e0_OfnmEluSwLV_fi7oM-58" value="component in the active incidents" style="rhombus;whiteSpace=wrap;html=1;strokeWidth=2;" parent="1" vertex="1">
          <mxGeometry x="351.25" y="1730" width="167.5" height="130" as="geometry" />
        </mxCell>
        <mxCell id="e0_OfnmEluSwLV_fi7oM-63" value="" style="edgeStyle=orthogonalEdgeStyle;rounded=0;orthogonalLoop=1;jettySize=auto;html=1;" parent="1" source="e0_OfnmEluSwLV_fi7oM-59" target="e0_OfnmEluSwLV_fi7oM-62" edge="1">
          <mxGeometry relative="1" as="geometry" />
        </mxCell>
        <mxCell id="e0_OfnmEluSwLV_fi7oM-59" value="get incidents matched by impact" style="whiteSpace=wrap;html=1;strokeWidth=2;" parent="1" vertex="1">
          <mxGeometry x="150" y="1765" width="120" height="60" as="geometry" />
        </mxCell>
        <mxCell id="e0_OfnmEluSwLV_fi7oM-65" value="" style="edgeStyle=orthogonalEdgeStyle;rounded=0;orthogonalLoop=1;jettySize=auto;html=1;" parent="1" source="e0_OfnmEluSwLV_fi7oM-62" target="e0_OfnmEluSwLV_fi7oM-64" edge="1">
          <mxGeometry relative="1" as="geometry" />
        </mxCell>
        <mxCell id="e0_OfnmEluSwLV_fi7oM-66" value="yes" style="edgeLabel;html=1;align=center;verticalAlign=middle;resizable=0;points=[];" parent="e0_OfnmEluSwLV_fi7oM-65" vertex="1" connectable="0">
          <mxGeometry x="0.0203" y="-1" relative="1" as="geometry">
            <mxPoint as="offset" />
          </mxGeometry>
        </mxCell>
        <mxCell id="e0_OfnmEluSwLV_fi7oM-68" value="" style="edgeStyle=orthogonalEdgeStyle;rounded=0;orthogonalLoop=1;jettySize=auto;html=1;" parent="1" source="e0_OfnmEluSwLV_fi7oM-62" target="e0_OfnmEluSwLV_fi7oM-67" edge="1">
          <mxGeometry relative="1" as="geometry" />
        </mxCell>
        <mxCell id="e0_OfnmEluSwLV_fi7oM-69" value="no" style="edgeLabel;html=1;align=center;verticalAlign=middle;resizable=0;points=[];" parent="e0_OfnmEluSwLV_fi7oM-68" vertex="1" connectable="0">
          <mxGeometry x="-0.1518" y="-3" relative="1" as="geometry">
            <mxPoint as="offset" />
          </mxGeometry>
        </mxCell>
        <mxCell id="e0_OfnmEluSwLV_fi7oM-62" value="found incident with impact" style="rhombus;whiteSpace=wrap;html=1;strokeWidth=2;" parent="1" vertex="1">
          <mxGeometry x="-150" y="1727.5" width="190" height="135" as="geometry" />
        </mxCell>
        <mxCell id="e0_OfnmEluSwLV_fi7oM-64" value="add component to the incident" style="whiteSpace=wrap;html=1;strokeWidth=2;" parent="1" vertex="1">
          <mxGeometry x="-385" y="1765" width="120" height="60" as="geometry" />
        </mxCell>
        <mxCell id="e0_OfnmEluSwLV_fi7oM-67" value="create the new incident" style="whiteSpace=wrap;html=1;strokeWidth=2;" parent="1" vertex="1">
          <mxGeometry x="-115" y="1980" width="120" height="60" as="geometry" />
        </mxCell>
        <mxCell id="e0_OfnmEluSwLV_fi7oM-73" value="" style="edgeStyle=orthogonalEdgeStyle;rounded=0;orthogonalLoop=1;jettySize=auto;html=1;" parent="1" source="e0_OfnmEluSwLV_fi7oM-70" target="e0_OfnmEluSwLV_fi7oM-72" edge="1">
          <mxGeometry relative="1" as="geometry" />
        </mxCell>
        <mxCell id="e0_OfnmEluSwLV_fi7oM-70" value="get incidents matched by impact" style="whiteSpace=wrap;html=1;strokeWidth=2;" parent="1" vertex="1">
          <mxGeometry x="375" y="1940" width="120" height="60" as="geometry" />
        </mxCell>
        <mxCell id="e0_OfnmEluSwLV_fi7oM-75" value="" style="edgeStyle=orthogonalEdgeStyle;rounded=0;orthogonalLoop=1;jettySize=auto;html=1;" parent="1" source="e0_OfnmEluSwLV_fi7oM-72" target="e0_OfnmEluSwLV_fi7oM-74" edge="1">
          <mxGeometry relative="1" as="geometry" />
        </mxCell>
        <mxCell id="e0_OfnmEluSwLV_fi7oM-76" value="no" style="edgeLabel;html=1;align=center;verticalAlign=middle;resizable=0;points=[];" parent="e0_OfnmEluSwLV_fi7oM-75" vertex="1" connectable="0">
          <mxGeometry x="0.1009" y="-3" relative="1" as="geometry">
            <mxPoint as="offset" />
          </mxGeometry>
        </mxCell>
        <mxCell id="e0_OfnmEluSwLV_fi7oM-78" value="" style="edgeStyle=orthogonalEdgeStyle;rounded=0;orthogonalLoop=1;jettySize=auto;html=1;" parent="1" source="e0_OfnmEluSwLV_fi7oM-72" target="e0_OfnmEluSwLV_fi7oM-77" edge="1">
          <mxGeometry relative="1" as="geometry" />
        </mxCell>
        <mxCell id="e0_OfnmEluSwLV_fi7oM-79" value="yes" style="edgeLabel;html=1;align=center;verticalAlign=middle;resizable=0;points=[];" parent="e0_OfnmEluSwLV_fi7oM-78" vertex="1" connectable="0">
          <mxGeometry x="-0.2928" y="3" relative="1" as="geometry">
            <mxPoint as="offset" />
          </mxGeometry>
        </mxCell>
        <mxCell id="e0_OfnmEluSwLV_fi7oM-72" value="component present in incident" style="rhombus;whiteSpace=wrap;html=1;strokeWidth=2;" parent="1" vertex="1">
          <mxGeometry x="357.5" y="2070" width="155" height="150" as="geometry" />
        </mxCell>
        <mxCell id="e0_OfnmEluSwLV_fi7oM-74" value="" style="shape=sumEllipse;perimeter=ellipsePerimeter;html=1;backgroundOutline=1;" parent="1" vertex="1">
          <mxGeometry x="230" y="2130" width="30" height="30" as="geometry" />
        </mxCell>
        <mxCell id="e0_OfnmEluSwLV_fi7oM-81" value="" style="edgeStyle=orthogonalEdgeStyle;rounded=0;orthogonalLoop=1;jettySize=auto;html=1;" parent="1" source="e0_OfnmEluSwLV_fi7oM-77" target="e0_OfnmEluSwLV_fi7oM-80" edge="1">
          <mxGeometry relative="1" as="geometry" />
        </mxCell>
        <mxCell id="e0_OfnmEluSwLV_fi7oM-84" value="yes" style="edgeLabel;html=1;align=center;verticalAlign=middle;resizable=0;points=[];" parent="e0_OfnmEluSwLV_fi7oM-81" vertex="1" connectable="0">
          <mxGeometry x="-0.3851" y="1" relative="1" as="geometry">
            <mxPoint as="offset" />
          </mxGeometry>
        </mxCell>
        <mxCell id="e0_OfnmEluSwLV_fi7oM-82" style="edgeStyle=orthogonalEdgeStyle;rounded=0;orthogonalLoop=1;jettySize=auto;html=1;exitX=0;exitY=0.5;exitDx=0;exitDy=0;entryX=0.5;entryY=1;entryDx=0;entryDy=0;" parent="1" source="e0_OfnmEluSwLV_fi7oM-77" target="e0_OfnmEluSwLV_fi7oM-44" edge="1">
          <mxGeometry relative="1" as="geometry" />
        </mxCell>
        <mxCell id="e0_OfnmEluSwLV_fi7oM-83" value="no" style="edgeLabel;html=1;align=center;verticalAlign=middle;resizable=0;points=[];" parent="e0_OfnmEluSwLV_fi7oM-82" vertex="1" connectable="0">
          <mxGeometry x="-0.8073" y="-3" relative="1" as="geometry">
            <mxPoint as="offset" />
          </mxGeometry>
        </mxCell>
        <mxCell id="e0_OfnmEluSwLV_fi7oM-77" value="Component impact more or equal Incident&#39;s impact" style="rhombus;whiteSpace=wrap;html=1;strokeWidth=2;" parent="1" vertex="1">
          <mxGeometry x="322.5" y="2335" width="225" height="235" as="geometry" />
        </mxCell>
        <mxCell id="e0_OfnmEluSwLV_fi7oM-86" value="" style="edgeStyle=orthogonalEdgeStyle;rounded=0;orthogonalLoop=1;jettySize=auto;html=1;" parent="1" source="e0_OfnmEluSwLV_fi7oM-80" target="e0_OfnmEluSwLV_fi7oM-85" edge="1">
          <mxGeometry relative="1" as="geometry" />
        </mxCell>
        <mxCell id="e0_OfnmEluSwLV_fi7oM-80" value="&lt;div&gt;handling_incidents(&lt;/div&gt;&lt;div&gt;&amp;nbsp; target_component,&lt;/div&gt;&lt;div&gt;&amp;nbsp; impact,&lt;/div&gt;&lt;div&gt;&amp;nbsp; impacts,&lt;/div&gt;&lt;div&gt;&amp;nbsp; incident,&lt;/div&gt;&lt;div&gt;&amp;nbsp; incident_match,&lt;/div&gt;&lt;div&gt;&amp;nbsp; text,&lt;/div&gt;&lt;div&gt;&lt;span style=&quot;background-color: initial;&quot;&gt;&amp;nbsp; comp_with_attrs,&lt;/span&gt;&lt;/div&gt;&lt;div&gt;)&lt;/div&gt;" style="whiteSpace=wrap;html=1;strokeWidth=2;align=left;" parent="1" vertex="1">
          <mxGeometry x="318.75" y="2737.5" width="232.5" height="162.5" as="geometry" />
        </mxCell>
        <mxCell id="e0_OfnmEluSwLV_fi7oM-88" value="" style="edgeStyle=orthogonalEdgeStyle;rounded=0;orthogonalLoop=1;jettySize=auto;html=1;" parent="1" source="e0_OfnmEluSwLV_fi7oM-85" target="e0_OfnmEluSwLV_fi7oM-87" edge="1">
          <mxGeometry relative="1" as="geometry" />
        </mxCell>
        <mxCell id="e0_OfnmEluSwLV_fi7oM-89" value="yes" style="edgeLabel;html=1;align=center;verticalAlign=middle;resizable=0;points=[];" parent="e0_OfnmEluSwLV_fi7oM-88" vertex="1" connectable="0">
          <mxGeometry x="-0.2649" y="-1" relative="1" as="geometry">
            <mxPoint as="offset" />
          </mxGeometry>
        </mxCell>
        <mxCell id="e0_OfnmEluSwLV_fi7oM-95" value="" style="edgeStyle=orthogonalEdgeStyle;rounded=0;orthogonalLoop=1;jettySize=auto;html=1;" parent="1" source="e0_OfnmEluSwLV_fi7oM-85" target="e0_OfnmEluSwLV_fi7oM-94" edge="1">
          <mxGeometry relative="1" as="geometry" />
        </mxCell>
        <mxCell id="e0_OfnmEluSwLV_fi7oM-85" value="Only 1 component in the incident and destination incident is present" style="rhombus;whiteSpace=wrap;html=1;align=center;strokeWidth=2;" parent="1" vertex="1">
          <mxGeometry x="311.25" y="3021.25" width="247.5" height="198.75" as="geometry" />
        </mxCell>
        <mxCell id="e0_OfnmEluSwLV_fi7oM-91" value="" style="edgeStyle=orthogonalEdgeStyle;rounded=0;orthogonalLoop=1;jettySize=auto;html=1;" parent="1" source="e0_OfnmEluSwLV_fi7oM-87" target="e0_OfnmEluSwLV_fi7oM-90" edge="1">
          <mxGeometry relative="1" as="geometry" />
        </mxCell>
        <mxCell id="e0_OfnmEluSwLV_fi7oM-87" value="add component to the destination incident" style="whiteSpace=wrap;html=1;strokeWidth=2;" parent="1" vertex="1">
          <mxGeometry x="47.5" y="3090.625" width="120" height="60" as="geometry" />
        </mxCell>
        <mxCell id="e0_OfnmEluSwLV_fi7oM-93" value="" style="edgeStyle=orthogonalEdgeStyle;rounded=0;orthogonalLoop=1;jettySize=auto;html=1;" parent="1" source="e0_OfnmEluSwLV_fi7oM-90" target="e0_OfnmEluSwLV_fi7oM-92" edge="1">
          <mxGeometry relative="1" as="geometry" />
        </mxCell>
        <mxCell id="e0_OfnmEluSwLV_fi7oM-90" value="move source incident to the closed status" style="whiteSpace=wrap;html=1;strokeWidth=2;" parent="1" vertex="1">
          <mxGeometry x="-152.5" y="3090.625" width="120" height="60" as="geometry" />
        </mxCell>
        <mxCell id="e0_OfnmEluSwLV_fi7oM-92" value="return 201&lt;div&gt;&lt;br&gt;&lt;/div&gt;&lt;div&gt;return the destination incident&lt;/div&gt;" style="whiteSpace=wrap;html=1;strokeWidth=2;" parent="1" vertex="1">
          <mxGeometry x="-352.5" y="3090.625" width="120" height="60" as="geometry" />
        </mxCell>
        <mxCell id="zGvvt8R07PYJa0WJ6Som-2" value="" style="edgeStyle=orthogonalEdgeStyle;rounded=0;orthogonalLoop=1;jettySize=auto;html=1;" edge="1" parent="1" source="e0_OfnmEluSwLV_fi7oM-94" target="zGvvt8R07PYJa0WJ6Som-1">
          <mxGeometry relative="1" as="geometry" />
        </mxCell>
        <mxCell id="zGvvt8R07PYJa0WJ6Som-5" value="yes" style="edgeLabel;html=1;align=center;verticalAlign=middle;resizable=0;points=[];" vertex="1" connectable="0" parent="zGvvt8R07PYJa0WJ6Som-2">
          <mxGeometry x="0.0748" y="-1" relative="1" as="geometry">
            <mxPoint as="offset" />
          </mxGeometry>
        </mxCell>
        <mxCell id="zGvvt8R07PYJa0WJ6Som-7" value="" style="edgeStyle=orthogonalEdgeStyle;rounded=0;orthogonalLoop=1;jettySize=auto;html=1;" edge="1" parent="1" source="e0_OfnmEluSwLV_fi7oM-94" target="zGvvt8R07PYJa0WJ6Som-6">
          <mxGeometry relative="1" as="geometry" />
        </mxCell>
        <mxCell id="e0_OfnmEluSwLV_fi7oM-94" value="Only 1 component in the incident and destination incident is not present" style="rhombus;whiteSpace=wrap;html=1;align=center;strokeWidth=2;" parent="1" vertex="1">
          <mxGeometry x="311.25" y="3320" width="247.5" height="198.75" as="geometry" />
        </mxCell>
        <mxCell id="zGvvt8R07PYJa0WJ6Som-4" value="" style="edgeStyle=orthogonalEdgeStyle;rounded=0;orthogonalLoop=1;jettySize=auto;html=1;" edge="1" parent="1" source="zGvvt8R07PYJa0WJ6Som-1" target="zGvvt8R07PYJa0WJ6Som-3">
          <mxGeometry relative="1" as="geometry" />
        </mxCell>
        <mxCell id="zGvvt8R07PYJa0WJ6Som-1" value="update current incident" style="whiteSpace=wrap;html=1;strokeWidth=2;" vertex="1" parent="1">
          <mxGeometry x="47.5" y="3389.375" width="120" height="60" as="geometry" />
        </mxCell>
        <mxCell id="zGvvt8R07PYJa0WJ6Som-3" value="return 201&lt;div&gt;&lt;br&gt;&lt;/div&gt;&lt;div&gt;return updated incident&lt;/div&gt;" style="whiteSpace=wrap;html=1;strokeWidth=2;" vertex="1" parent="1">
          <mxGeometry x="-152.5" y="3389.375" width="120" height="60" as="geometry" />
        </mxCell>
        <mxCell id="zGvvt8R07PYJa0WJ6Som-6" value="log an error" style="whiteSpace=wrap;html=1;strokeWidth=2;" vertex="1" parent="1">
          <mxGeometry x="375" y="3668.125" width="120" height="60" as="geometry" />
        </mxCell>
      </root>
    </mxGraphModel>
  </diagram>
</mxfile>
